<svg width="74" height="74" viewBox="0 0 74 74" fill="none" xmlns="http://www.w3.org/2000/svg">
<g clip-path="url(#clip0_11172_432)">
<g filter="url(#filter0_d_11172_432)">
<path d="M5.82703 65.3808C5.99203 65.3808 6.12926 65.438 6.23871 65.5507C6.34654 65.6602 6.40208 65.786 6.40208 65.9298C6.40208 66.0866 6.34654 66.2157 6.23871 66.3153C6.12926 66.4166 5.99203 66.4656 5.82703 66.4656H2.67076C2.50902 66.4656 2.37179 66.4117 2.25907 66.3022C2.14961 66.1944 2.0957 66.0572 2.0957 65.8905V60.4471C2.0957 60.2821 2.14961 60.1449 2.25907 60.0354C2.37179 59.9276 2.50902 59.8721 2.67076 59.8721H5.82703C5.99203 59.8721 6.12926 59.9243 6.23871 60.0289C6.34654 60.1302 6.40208 60.2625 6.40208 60.4275C6.40208 60.5844 6.34654 60.7118 6.23871 60.8065C6.13416 60.9029 5.99693 60.9503 5.82703 60.9503H3.27195V62.5578H5.40227C5.56727 62.5578 5.7045 62.6101 5.81396 62.7147C5.92178 62.816 5.97733 62.9483 5.97733 63.1133C5.97733 63.2701 5.92178 63.3976 5.81396 63.4923C5.7094 63.5887 5.57217 63.6361 5.40227 63.6361H3.27195V65.3808H5.82703Z" fill="white"/>
</g>
<g filter="url(#filter1_d_11172_432)">
<path d="M12.6618 65.733C12.6912 65.8114 12.7076 65.8865 12.7076 65.9552C12.7076 66.1218 12.652 66.2558 12.5442 66.3603C12.4396 66.4616 12.3171 66.5106 12.1783 66.5106C12.0639 66.5106 11.9626 66.4747 11.8711 66.4061C11.7796 66.3374 11.7094 66.2427 11.662 66.1251L11.1719 64.988H8.36199L7.87188 66.1381C7.82777 66.2558 7.76079 66.3472 7.66931 66.4126C7.57782 66.4779 7.4798 66.5106 7.37524 66.5106C7.20861 66.5106 7.08281 66.4665 6.99623 66.3799C6.91291 66.2933 6.87207 66.1741 6.87207 66.0205C6.87207 65.965 6.88187 65.9062 6.90474 65.8441L9.25071 60.2111C9.29808 60.0854 9.3716 59.9873 9.47289 59.9171C9.57254 59.8485 9.68527 59.8191 9.81269 59.8321C9.92542 59.8321 10.03 59.8648 10.1264 59.9302C10.226 59.9955 10.2979 60.0903 10.342 60.2111L12.6618 65.733ZM8.82595 63.9033H10.7079L9.76041 61.6945L8.82595 63.9033Z" fill="white"/>
</g>
<g filter="url(#filter2_d_11172_432)">
<path d="M18.6843 65.5442C18.766 65.5932 18.8297 65.6586 18.8738 65.7402C18.9212 65.8236 18.9457 65.9085 18.9457 65.9951C18.9457 66.1095 18.9081 66.2107 18.8346 66.3022C18.7382 66.4166 18.5944 66.4721 18.4033 66.4721C18.2497 66.4721 18.1109 66.4395 17.9851 66.3741C17.5309 66.1127 17.3055 65.5883 17.3055 64.7992C17.3055 64.5738 17.2303 64.3941 17.0833 64.2634C16.9395 64.1294 16.7271 64.0608 16.4494 64.0608H14.685V65.8905C14.685 66.0605 14.6393 66.2009 14.5478 66.3088C14.4596 66.4133 14.3403 66.4656 14.1884 66.4656C14.0054 66.4656 13.8453 66.4117 13.7114 66.3022C13.5758 66.1944 13.5088 66.0572 13.5088 65.8905V60.4471C13.5088 60.2821 13.5627 60.1449 13.6722 60.0354C13.7849 59.9276 13.9221 59.8721 14.0838 59.8721H16.7958C17.1225 59.8721 17.4296 59.9603 17.7171 60.1335C18.0079 60.3083 18.2399 60.55 18.4098 60.8588C18.583 61.1692 18.6712 61.5156 18.6712 61.8978C18.6712 62.2115 18.5863 62.5186 18.4164 62.8192C18.2465 63.1166 18.0259 63.3518 17.7564 63.525C18.1517 63.8043 18.3706 64.1752 18.4098 64.6359C18.4262 64.7372 18.436 64.8352 18.436 64.9299C18.4621 65.126 18.4882 65.2681 18.5144 65.3547C18.5405 65.438 18.5961 65.5017 18.6843 65.5442ZM16.75 63.0937C16.8627 63.0937 16.9722 63.0414 17.0767 62.9369C17.1846 62.829 17.2744 62.6853 17.3447 62.5056C17.4133 62.3275 17.4492 62.1331 17.4492 61.924C17.4492 61.7508 17.4133 61.5891 17.3447 61.4404C17.2744 61.2934 17.1846 61.1757 17.0767 61.0875C16.9722 60.996 16.8627 60.9503 16.75 60.9503H14.685V63.0937H16.75Z" fill="white"/>
</g>
<g filter="url(#filter3_d_11172_432)">
<path d="M24.989 59.8721C25.136 59.8721 25.2585 59.9227 25.3549 60.0224C25.4497 60.1237 25.4987 60.2478 25.4987 60.3948V65.8905C25.4987 66.0572 25.4415 66.1944 25.3288 66.3022C25.2193 66.4117 25.0837 66.4656 24.9236 66.4656C24.8354 66.4656 24.7488 66.4525 24.6623 66.4264C24.5789 66.397 24.5185 66.3545 24.4793 66.3022L21.0224 61.9174V65.9363C21.0224 66.0899 20.9718 66.2157 20.8721 66.3153C20.7757 66.4166 20.6499 66.4656 20.4931 66.4656C20.3395 66.4656 20.2154 66.4166 20.1206 66.3153C20.0291 66.2157 19.9834 66.0899 19.9834 65.9363V60.4471C19.9834 60.2821 20.0373 60.1449 20.1468 60.0354C20.2595 59.9276 20.3967 59.8721 20.5585 59.8721C20.6532 59.8721 20.748 59.8917 20.8394 59.9309C20.9309 59.9668 20.9979 60.0142 21.042 60.0746L24.4727 64.4464V60.3948C24.4727 60.2478 24.5201 60.1237 24.6165 60.0224C24.7113 59.9227 24.8354 59.8721 24.989 59.8721Z" fill="white"/>
</g>
<g filter="url(#filter4_d_11172_432)">
<path d="M34.7253 65.733C34.7547 65.8114 34.7711 65.8865 34.7711 65.9552C34.7711 66.1218 34.7155 66.2558 34.6077 66.3603C34.5031 66.4616 34.3806 66.5106 34.2417 66.5106C34.1274 66.5106 34.0261 66.4747 33.9346 66.406C33.8431 66.3374 33.7729 66.2427 33.7255 66.1251L33.2354 64.988H30.4255L29.9354 66.1381C29.8912 66.2558 29.8243 66.3472 29.7328 66.4126C29.6413 66.4779 29.5433 66.5106 29.4387 66.5106C29.2721 66.5106 29.1463 66.4665 29.0597 66.3799C28.9764 66.2933 28.9355 66.1741 28.9355 66.0205C28.9355 65.965 28.9453 65.9061 28.9682 65.8441L31.3142 60.2111C31.3616 60.0853 31.4351 59.9873 31.5364 59.9171C31.636 59.8485 31.7487 59.8191 31.8762 59.8321C31.9889 59.8321 32.0934 59.8648 32.1898 59.9302C32.2895 59.9955 32.3614 60.0903 32.4055 60.2111L34.7253 65.733ZM30.8894 63.9033H32.7714L31.8239 61.6945L30.8894 63.9033Z" fill="white"/>
</g>
<g filter="url(#filter5_d_11172_432)">
<path d="M39.2121 65.3612C39.3722 65.3612 39.5078 65.4135 39.6173 65.5181C39.73 65.6226 39.7872 65.7566 39.7872 65.9167C39.7872 66.0735 39.73 66.2042 39.6173 66.3088C39.5078 66.4133 39.3722 66.4656 39.2121 66.4656H36.1473C35.9856 66.4656 35.8484 66.4117 35.7356 66.3022C35.6262 66.1944 35.5723 66.0572 35.5723 65.8905V60.4471C35.5723 60.2821 35.6278 60.1449 35.7422 60.0354C35.8549 59.9276 35.9987 59.8721 36.1735 59.8721C36.3303 59.8721 36.4643 59.9276 36.5786 60.0354C36.6913 60.1449 36.7485 60.2821 36.7485 60.4471V65.3612H39.2121Z" fill="white"/>
</g>
<g filter="url(#filter6_d_11172_432)">
<path d="M44.509 65.3612C44.6691 65.3612 44.8047 65.4135 44.9141 65.5181C45.0269 65.6226 45.084 65.7566 45.084 65.9167C45.084 66.0735 45.0269 66.2042 44.9141 66.3088C44.8047 66.4133 44.6691 66.4656 44.509 66.4656H41.4442C41.2825 66.4656 41.1452 66.4117 41.0325 66.3022C40.9231 66.1944 40.8691 66.0572 40.8691 65.8905V60.4471C40.8691 60.2821 40.9247 60.1449 41.039 60.0354C41.1518 59.9276 41.2955 59.8721 41.4703 59.8721C41.6272 59.8721 41.7611 59.9276 41.8755 60.0354C41.9882 60.1449 42.0454 60.2821 42.0454 60.4471V65.3612H44.509Z" fill="white"/>
</g>
<g filter="url(#filter7_d_11172_432)">
<path d="M47.3423 65.8905C47.3423 66.0572 47.2835 66.1944 47.1658 66.3022C47.0482 66.4117 46.911 66.4656 46.7541 66.4656C46.5842 66.4656 46.4421 66.4117 46.3294 66.3022C46.2199 66.1944 46.166 66.0572 46.166 65.8905V60.4471C46.166 60.2821 46.2216 60.1449 46.3359 60.0354C46.4486 59.9276 46.5924 59.8721 46.7672 59.8721C46.924 59.8721 47.058 59.9276 47.1724 60.0354C47.2851 60.1449 47.3423 60.2821 47.3423 60.4471V65.8905Z" fill="white"/>
</g>
<g filter="url(#filter8_d_11172_432)">
<path d="M53.9333 65.733C53.9627 65.8114 53.9791 65.8865 53.9791 65.9552C53.9791 66.1218 53.9235 66.2558 53.8157 66.3603C53.7111 66.4616 53.5886 66.5106 53.4497 66.5106C53.3354 66.5106 53.2341 66.4747 53.1426 66.4061C53.0511 66.3374 52.9809 66.2427 52.9335 66.1251L52.4434 64.988H49.6335L49.1434 66.1381C49.0993 66.2558 49.0323 66.3472 48.9408 66.4126C48.8493 66.4779 48.7513 66.5106 48.6467 66.5106C48.4801 66.5106 48.3543 66.4665 48.2677 66.3799C48.1844 66.2933 48.1436 66.1741 48.1436 66.0205C48.1436 65.965 48.1534 65.9062 48.1762 65.8441L50.5222 60.2111C50.5696 60.0854 50.6431 59.9873 50.7444 59.9171C50.844 59.8485 50.9568 59.8191 51.0842 59.8321C51.1969 59.8321 51.3015 59.8648 51.3978 59.9302C51.4975 59.9955 51.5694 60.0903 51.6135 60.2111L53.9333 65.733ZM50.0974 63.9033H51.9794L51.0319 61.6945L50.0974 63.9033Z" fill="white"/>
</g>
<g filter="url(#filter9_d_11172_432)">
<path d="M59.7859 59.8721C59.9329 59.8721 60.0554 59.9227 60.1518 60.0224C60.2466 60.1237 60.2956 60.2478 60.2956 60.3948V65.8905C60.2956 66.0572 60.2384 66.1944 60.1257 66.3022C60.0162 66.4117 59.8806 66.4656 59.7205 66.4656C59.6323 66.4656 59.5457 66.4525 59.4591 66.4264C59.3758 66.397 59.3154 66.3545 59.2762 66.3022L55.8193 61.9174V65.9363C55.8193 66.0899 55.7686 66.2157 55.669 66.3153C55.5726 66.4166 55.4468 66.4656 55.29 66.4656C55.1364 66.4656 55.0123 66.4166 54.9175 66.3153C54.826 66.2157 54.7803 66.0899 54.7803 65.9363V60.4471C54.7803 60.2821 54.8342 60.1449 54.9436 60.0354C55.0564 59.9276 55.1936 59.8721 55.3553 59.8721C55.4501 59.8721 55.5448 59.8917 55.6363 59.9309C55.7278 59.9668 55.7948 60.0142 55.8389 60.0746L59.2696 64.4464V60.3948C59.2696 60.2478 59.317 60.1237 59.4134 60.0224C59.5081 59.9227 59.6323 59.8721 59.7859 59.8721Z" fill="white"/>
</g>
<g filter="url(#filter10_d_11172_432)">
<path d="M66.3267 60.1918C66.5178 60.2931 66.6142 60.4516 66.6142 60.6688C66.6142 60.7995 66.5684 60.9286 66.477 61.0544C66.3757 61.19 66.2482 61.257 66.0914 61.257C65.982 61.257 65.8758 61.2292 65.7712 61.172C65.4608 61.025 65.1275 60.9498 64.7714 60.9498C64.3303 60.9498 63.948 61.0446 63.6213 61.2308C63.2946 61.4187 63.0413 61.6801 62.8633 62.015C62.6885 62.3515 62.6019 62.7338 62.6019 63.1651C62.6019 63.9068 62.7995 64.4688 63.1965 64.8511C63.5968 65.235 64.1212 65.4261 64.7714 65.4261C65.1537 65.4261 65.487 65.3542 65.7712 65.2105C65.8839 65.1631 65.9836 65.1386 66.0718 65.1386C66.2319 65.1386 66.3691 65.2072 66.4835 65.3412C66.5782 65.4637 66.6273 65.5944 66.6273 65.7332C66.6273 65.8345 66.6011 65.926 66.5488 66.0077C66.4998 66.0861 66.4279 66.1482 66.3332 66.1907C65.8447 66.4357 65.3236 66.5566 64.7714 66.5566C64.1522 66.5566 63.5853 66.4292 63.0724 66.1711C62.5578 65.9097 62.1461 65.5241 61.8373 65.0144C61.5318 64.5047 61.3799 63.8888 61.3799 63.1651C61.3799 62.5247 61.5253 61.9529 61.8177 61.4465C62.1085 60.9368 62.512 60.5382 63.0266 60.2506C63.5396 59.9631 64.1212 59.8193 64.7714 59.8193C65.3285 59.8193 65.8464 59.9435 66.3267 60.1918Z" fill="white"/>
</g>
<g filter="url(#filter11_d_11172_432)">
<path d="M71.3475 65.3808C71.5125 65.3808 71.6498 65.438 71.7592 65.5507C71.867 65.6602 71.9226 65.786 71.9226 65.9298C71.9226 66.0866 71.867 66.2157 71.7592 66.3153C71.6498 66.4166 71.5125 66.4656 71.3475 66.4656H68.1913C68.0295 66.4656 67.8923 66.4117 67.7796 66.3022C67.6701 66.1944 67.6162 66.0572 67.6162 65.8905V60.4471C67.6162 60.2821 67.6701 60.1449 67.7796 60.0354C67.8923 59.9276 68.0295 59.8721 68.1913 59.8721H71.3475C71.5125 59.8721 71.6498 59.9243 71.7592 60.0289C71.867 60.1302 71.9226 60.2625 71.9226 60.4275C71.9226 60.5844 71.867 60.7118 71.7592 60.8065C71.6547 60.9029 71.5174 60.9503 71.3475 60.9503H68.7925V62.5578H70.9228C71.0878 62.5578 71.225 62.6101 71.3345 62.7147C71.4423 62.816 71.4978 62.9483 71.4978 63.1133C71.4978 63.2701 71.4423 63.3976 71.3345 63.4923C71.2299 63.5887 71.0927 63.6361 70.9228 63.6361H68.7925V65.3808H71.3475Z" fill="white"/>
</g>
<g filter="url(#filter12_d_11172_432)">
<path d="M61.8153 19.6061C61.8153 19.5963 61.8251 19.5963 61.8251 19.5865C61.8349 19.5685 61.8447 19.5391 61.8447 19.5212C61.8447 19.5015 61.8529 19.4738 61.8529 19.4542V19.4346C61.8529 19.4166 61.8529 19.397 61.8447 19.379C61.8447 19.3692 61.8447 19.3692 61.8447 19.3594C61.8349 19.3398 61.8349 19.312 61.8251 19.2924C61.8251 19.2826 61.8153 19.2826 61.8153 19.2745C61.8153 19.2647 61.8055 19.2549 61.7957 19.2451L55.0502 7.63287L55.0404 7.6247C55.0306 7.60509 55.0126 7.58549 54.993 7.56752C54.9832 7.55772 54.9832 7.55772 54.9734 7.54791C54.9653 7.53811 54.9653 7.53811 54.9555 7.52994C54.9457 7.52014 54.9261 7.51034 54.9179 7.50054C54.9081 7.50054 54.9081 7.49074 54.8983 7.49074C54.8705 7.47277 54.8411 7.46296 54.8133 7.45316C54.8035 7.45316 54.8035 7.45316 54.7937 7.45316C54.766 7.44336 54.7463 7.44336 54.7186 7.44336H51.2258C51.0085 7.44336 50.837 7.6247 50.837 7.83218C50.837 8.05109 51.0167 8.22099 51.2258 8.22099H53.8838L45.1436 18.7991L37.5535 8.22099H48.9582C49.1771 8.22099 49.347 8.04129 49.347 7.83218C49.347 7.6149 49.1673 7.44336 48.9582 7.44336H36.784C36.7661 7.44336 36.7465 7.44336 36.7285 7.44336H20.2463C20.2169 7.44336 20.1891 7.44336 20.1614 7.45316C20.1516 7.45316 20.1418 7.46296 20.132 7.46296C20.114 7.47277 20.0944 7.47277 20.0748 7.48093C20.065 7.48093 20.0568 7.49074 20.047 7.50054C20.0372 7.50054 20.0274 7.51034 20.0176 7.51034C20.0094 7.52014 19.9996 7.52014 19.9996 7.52994C19.9898 7.53811 19.98 7.53811 19.9702 7.54791C19.9522 7.56752 19.9424 7.57732 19.9228 7.59529L19.9147 7.60509L11.7724 19.4068C11.7724 19.4166 11.7626 19.4166 11.7626 19.4264C11.7544 19.4444 11.7446 19.4542 11.7348 19.4738C11.7348 19.4819 11.725 19.4917 11.725 19.4917C11.7152 19.5113 11.7152 19.5212 11.7152 19.5391C11.7152 19.5489 11.7152 19.5587 11.7071 19.5685C11.7071 19.5865 11.6973 19.6061 11.6973 19.6257V19.6339C11.6973 19.6535 11.6973 19.6813 11.7071 19.7009C11.7071 19.7107 11.7071 19.7107 11.7152 19.7205C11.7152 19.7384 11.725 19.7482 11.7348 19.7678C11.7348 19.776 11.7446 19.7858 11.7446 19.7956C11.7544 19.8054 11.7544 19.8234 11.7626 19.8332C11.7724 19.843 11.7724 19.8528 11.7822 19.8528C11.7822 19.8528 11.7822 19.8626 11.792 19.8626L29.3639 42.6965C29.4407 42.8011 29.555 42.8485 29.6775 42.8485C29.7625 42.8485 29.8491 42.8207 29.9144 42.7635C30.086 42.6312 30.1235 42.3845 29.9912 42.213L12.9013 20.0145L24.1933 19.9671C24.4122 19.9671 24.5821 19.7858 24.5821 19.5685C24.5821 19.3496 24.4024 19.1797 24.1933 19.1797L12.8539 19.2271L20.2463 8.52486L27.8936 19.7009L36.1485 50.2196L32.5724 45.5718C32.4385 45.4003 32.1918 45.3627 32.0219 45.495C31.8503 45.629 31.8128 45.8757 31.9451 46.0456L36.7285 52.2601L36.7367 52.2699C36.7465 52.2879 36.7661 52.2977 36.784 52.3173L36.7938 52.3254C36.8134 52.345 36.8314 52.3548 36.8608 52.3646C36.8706 52.3646 36.8706 52.3728 36.8788 52.3728C36.8984 52.3826 36.918 52.3924 36.936 52.3924C36.9458 52.3924 36.9458 52.3924 36.9556 52.4022C36.9834 52.412 37.0128 52.412 37.0307 52.412C37.0601 52.412 37.0879 52.412 37.1075 52.4022C37.1173 52.4022 37.1255 52.4022 37.1255 52.3924C37.1451 52.3826 37.1647 52.3826 37.1827 52.3728C37.1925 52.3728 37.1925 52.3646 37.2023 52.3646C37.2219 52.3548 37.2496 52.3352 37.2692 52.3173L37.2774 52.3075C37.297 52.2879 37.3068 52.2781 37.3248 52.2601L37.3346 52.2503L61.7483 19.6633C61.7483 19.6633 61.7483 19.6535 61.7581 19.6535C61.7581 19.6437 61.7679 19.6437 61.7679 19.6339C61.7957 19.6339 61.8055 19.6257 61.8153 19.6061ZM44.3937 19.1225L29.0045 19.1797L36.7759 8.50688L44.3937 19.1225ZM20.9962 8.23079H36.0064L28.2644 18.866L20.9962 8.23079ZM44.593 19.9002L42.9708 26.4463C42.9136 26.6554 43.0476 26.8727 43.255 26.9201C43.2845 26.9299 43.322 26.9299 43.3514 26.9299C43.5311 26.9299 43.6929 26.8057 43.7304 26.6358L45.4001 19.9002L52.4412 19.8724C52.6585 19.8724 52.83 19.6911 52.83 19.4738C52.83 19.2549 52.6487 19.085 52.4412 19.085L45.9032 19.1127L54.6614 8.51505L60.7812 19.0556L55.0306 19.0752C54.8133 19.0752 54.6418 19.2549 54.6418 19.4738C54.6418 19.6911 54.8231 19.8626 55.0306 19.8626L60.6766 19.843L37.8851 50.249L42.8956 30.0322C42.9528 29.8231 42.8189 29.6059 42.6114 29.5585C42.4023 29.5095 42.1834 29.6336 42.136 29.8427L37.0226 50.4663L28.7757 19.9671L44.593 19.9002Z" fill="#31AAA6"/>
</g>
</g>
<defs>
<filter id="filter0_d_11172_432" x="-39.9043" y="21.8721" width="88.3066" height="90.5938" filterUnits="userSpaceOnUse" color-interpolation-filters="sRGB">
<feFlood flood-opacity="0" result="BackgroundImageFix"/>
<feColorMatrix in="SourceAlpha" type="matrix" values="0 0 0 0 0 0 0 0 0 0 0 0 0 0 0 0 0 0 127 0" result="hardAlpha"/>
<feOffset dy="4"/>
<feGaussianBlur stdDeviation="21"/>
<feComposite in2="hardAlpha" operator="out"/>
<feColorMatrix type="matrix" values="0 0 0 0 0 0 0 0 0 0 0 0 0 0 0 0 0 0 0.45 0"/>
<feBlend mode="normal" in2="BackgroundImageFix" result="effect1_dropShadow_11172_432"/>
<feBlend mode="normal" in="SourceGraphic" in2="effect1_dropShadow_11172_432" result="shape"/>
</filter>
<filter id="filter1_d_11172_432" x="-35.1279" y="21.8291" width="89.8359" height="90.6816" filterUnits="userSpaceOnUse" color-interpolation-filters="sRGB">
<feFlood flood-opacity="0" result="BackgroundImageFix"/>
<feColorMatrix in="SourceAlpha" type="matrix" values="0 0 0 0 0 0 0 0 0 0 0 0 0 0 0 0 0 0 127 0" result="hardAlpha"/>
<feOffset dy="4"/>
<feGaussianBlur stdDeviation="21"/>
<feComposite in2="hardAlpha" operator="out"/>
<feColorMatrix type="matrix" values="0 0 0 0 0 0 0 0 0 0 0 0 0 0 0 0 0 0 0.45 0"/>
<feBlend mode="normal" in2="BackgroundImageFix" result="effect1_dropShadow_11172_432"/>
<feBlend mode="normal" in="SourceGraphic" in2="effect1_dropShadow_11172_432" result="shape"/>
</filter>
<filter id="filter2_d_11172_432" x="-28.4912" y="21.8721" width="89.4365" height="90.5996" filterUnits="userSpaceOnUse" color-interpolation-filters="sRGB">
<feFlood flood-opacity="0" result="BackgroundImageFix"/>
<feColorMatrix in="SourceAlpha" type="matrix" values="0 0 0 0 0 0 0 0 0 0 0 0 0 0 0 0 0 0 127 0" result="hardAlpha"/>
<feOffset dy="4"/>
<feGaussianBlur stdDeviation="21"/>
<feComposite in2="hardAlpha" operator="out"/>
<feColorMatrix type="matrix" values="0 0 0 0 0 0 0 0 0 0 0 0 0 0 0 0 0 0 0.45 0"/>
<feBlend mode="normal" in2="BackgroundImageFix" result="effect1_dropShadow_11172_432"/>
<feBlend mode="normal" in="SourceGraphic" in2="effect1_dropShadow_11172_432" result="shape"/>
</filter>
<filter id="filter3_d_11172_432" x="-22.0166" y="21.8721" width="89.5156" height="90.5938" filterUnits="userSpaceOnUse" color-interpolation-filters="sRGB">
<feFlood flood-opacity="0" result="BackgroundImageFix"/>
<feColorMatrix in="SourceAlpha" type="matrix" values="0 0 0 0 0 0 0 0 0 0 0 0 0 0 0 0 0 0 127 0" result="hardAlpha"/>
<feOffset dy="4"/>
<feGaussianBlur stdDeviation="21"/>
<feComposite in2="hardAlpha" operator="out"/>
<feColorMatrix type="matrix" values="0 0 0 0 0 0 0 0 0 0 0 0 0 0 0 0 0 0 0.45 0"/>
<feBlend mode="normal" in2="BackgroundImageFix" result="effect1_dropShadow_11172_432"/>
<feBlend mode="normal" in="SourceGraphic" in2="effect1_dropShadow_11172_432" result="shape"/>
</filter>
<filter id="filter4_d_11172_432" x="-13.0645" y="21.8291" width="89.8359" height="90.6816" filterUnits="userSpaceOnUse" color-interpolation-filters="sRGB">
<feFlood flood-opacity="0" result="BackgroundImageFix"/>
<feColorMatrix in="SourceAlpha" type="matrix" values="0 0 0 0 0 0 0 0 0 0 0 0 0 0 0 0 0 0 127 0" result="hardAlpha"/>
<feOffset dy="4"/>
<feGaussianBlur stdDeviation="21"/>
<feComposite in2="hardAlpha" operator="out"/>
<feColorMatrix type="matrix" values="0 0 0 0 0 0 0 0 0 0 0 0 0 0 0 0 0 0 0.45 0"/>
<feBlend mode="normal" in2="BackgroundImageFix" result="effect1_dropShadow_11172_432"/>
<feBlend mode="normal" in="SourceGraphic" in2="effect1_dropShadow_11172_432" result="shape"/>
</filter>
<filter id="filter5_d_11172_432" x="-6.42773" y="21.8721" width="88.2148" height="90.5938" filterUnits="userSpaceOnUse" color-interpolation-filters="sRGB">
<feFlood flood-opacity="0" result="BackgroundImageFix"/>
<feColorMatrix in="SourceAlpha" type="matrix" values="0 0 0 0 0 0 0 0 0 0 0 0 0 0 0 0 0 0 127 0" result="hardAlpha"/>
<feOffset dy="4"/>
<feGaussianBlur stdDeviation="21"/>
<feComposite in2="hardAlpha" operator="out"/>
<feColorMatrix type="matrix" values="0 0 0 0 0 0 0 0 0 0 0 0 0 0 0 0 0 0 0.45 0"/>
<feBlend mode="normal" in2="BackgroundImageFix" result="effect1_dropShadow_11172_432"/>
<feBlend mode="normal" in="SourceGraphic" in2="effect1_dropShadow_11172_432" result="shape"/>
</filter>
<filter id="filter6_d_11172_432" x="-1.13086" y="21.8721" width="88.2148" height="90.5938" filterUnits="userSpaceOnUse" color-interpolation-filters="sRGB">
<feFlood flood-opacity="0" result="BackgroundImageFix"/>
<feColorMatrix in="SourceAlpha" type="matrix" values="0 0 0 0 0 0 0 0 0 0 0 0 0 0 0 0 0 0 127 0" result="hardAlpha"/>
<feOffset dy="4"/>
<feGaussianBlur stdDeviation="21"/>
<feComposite in2="hardAlpha" operator="out"/>
<feColorMatrix type="matrix" values="0 0 0 0 0 0 0 0 0 0 0 0 0 0 0 0 0 0 0.45 0"/>
<feBlend mode="normal" in2="BackgroundImageFix" result="effect1_dropShadow_11172_432"/>
<feBlend mode="normal" in="SourceGraphic" in2="effect1_dropShadow_11172_432" result="shape"/>
</filter>
<filter id="filter7_d_11172_432" x="4.16602" y="21.8721" width="85.1758" height="90.5938" filterUnits="userSpaceOnUse" color-interpolation-filters="sRGB">
<feFlood flood-opacity="0" result="BackgroundImageFix"/>
<feColorMatrix in="SourceAlpha" type="matrix" values="0 0 0 0 0 0 0 0 0 0 0 0 0 0 0 0 0 0 127 0" result="hardAlpha"/>
<feOffset dy="4"/>
<feGaussianBlur stdDeviation="21"/>
<feComposite in2="hardAlpha" operator="out"/>
<feColorMatrix type="matrix" values="0 0 0 0 0 0 0 0 0 0 0 0 0 0 0 0 0 0 0.45 0"/>
<feBlend mode="normal" in2="BackgroundImageFix" result="effect1_dropShadow_11172_432"/>
<feBlend mode="normal" in="SourceGraphic" in2="effect1_dropShadow_11172_432" result="shape"/>
</filter>
<filter id="filter8_d_11172_432" x="6.14355" y="21.8291" width="89.8359" height="90.6816" filterUnits="userSpaceOnUse" color-interpolation-filters="sRGB">
<feFlood flood-opacity="0" result="BackgroundImageFix"/>
<feColorMatrix in="SourceAlpha" type="matrix" values="0 0 0 0 0 0 0 0 0 0 0 0 0 0 0 0 0 0 127 0" result="hardAlpha"/>
<feOffset dy="4"/>
<feGaussianBlur stdDeviation="21"/>
<feComposite in2="hardAlpha" operator="out"/>
<feColorMatrix type="matrix" values="0 0 0 0 0 0 0 0 0 0 0 0 0 0 0 0 0 0 0.45 0"/>
<feBlend mode="normal" in2="BackgroundImageFix" result="effect1_dropShadow_11172_432"/>
<feBlend mode="normal" in="SourceGraphic" in2="effect1_dropShadow_11172_432" result="shape"/>
</filter>
<filter id="filter9_d_11172_432" x="12.7803" y="21.8721" width="89.5156" height="90.5938" filterUnits="userSpaceOnUse" color-interpolation-filters="sRGB">
<feFlood flood-opacity="0" result="BackgroundImageFix"/>
<feColorMatrix in="SourceAlpha" type="matrix" values="0 0 0 0 0 0 0 0 0 0 0 0 0 0 0 0 0 0 127 0" result="hardAlpha"/>
<feOffset dy="4"/>
<feGaussianBlur stdDeviation="21"/>
<feComposite in2="hardAlpha" operator="out"/>
<feColorMatrix type="matrix" values="0 0 0 0 0 0 0 0 0 0 0 0 0 0 0 0 0 0 0.45 0"/>
<feBlend mode="normal" in2="BackgroundImageFix" result="effect1_dropShadow_11172_432"/>
<feBlend mode="normal" in="SourceGraphic" in2="effect1_dropShadow_11172_432" result="shape"/>
</filter>
<filter id="filter10_d_11172_432" x="19.3799" y="21.8193" width="89.2471" height="90.7373" filterUnits="userSpaceOnUse" color-interpolation-filters="sRGB">
<feFlood flood-opacity="0" result="BackgroundImageFix"/>
<feColorMatrix in="SourceAlpha" type="matrix" values="0 0 0 0 0 0 0 0 0 0 0 0 0 0 0 0 0 0 127 0" result="hardAlpha"/>
<feOffset dy="4"/>
<feGaussianBlur stdDeviation="21"/>
<feComposite in2="hardAlpha" operator="out"/>
<feColorMatrix type="matrix" values="0 0 0 0 0 0 0 0 0 0 0 0 0 0 0 0 0 0 0.45 0"/>
<feBlend mode="normal" in2="BackgroundImageFix" result="effect1_dropShadow_11172_432"/>
<feBlend mode="normal" in="SourceGraphic" in2="effect1_dropShadow_11172_432" result="shape"/>
</filter>
<filter id="filter11_d_11172_432" x="25.6162" y="21.8721" width="88.3066" height="90.5938" filterUnits="userSpaceOnUse" color-interpolation-filters="sRGB">
<feFlood flood-opacity="0" result="BackgroundImageFix"/>
<feColorMatrix in="SourceAlpha" type="matrix" values="0 0 0 0 0 0 0 0 0 0 0 0 0 0 0 0 0 0 127 0" result="hardAlpha"/>
<feOffset dy="4"/>
<feGaussianBlur stdDeviation="21"/>
<feComposite in2="hardAlpha" operator="out"/>
<feColorMatrix type="matrix" values="0 0 0 0 0 0 0 0 0 0 0 0 0 0 0 0 0 0 0.45 0"/>
<feBlend mode="normal" in2="BackgroundImageFix" result="effect1_dropShadow_11172_432"/>
<feBlend mode="normal" in="SourceGraphic" in2="effect1_dropShadow_11172_432" result="shape"/>
</filter>
<filter id="filter12_d_11172_432" x="-11.3027" y="-15.5566" width="96.1553" height="90.9688" filterUnits="userSpaceOnUse" color-interpolation-filters="sRGB">
<feFlood flood-opacity="0" result="BackgroundImageFix"/>
<feColorMatrix in="SourceAlpha" type="matrix" values="0 0 0 0 0 0 0 0 0 0 0 0 0 0 0 0 0 0 127 0" result="hardAlpha"/>
<feOffset/>
<feGaussianBlur stdDeviation="11.5"/>
<feComposite in2="hardAlpha" operator="out"/>
<feColorMatrix type="matrix" values="0 0 0 0 0 0 0 0 0 0.866667 0 0 0 0 0.866667 0 0 0 1 0"/>
<feBlend mode="normal" in2="BackgroundImageFix" result="effect1_dropShadow_11172_432"/>
<feBlend mode="normal" in="SourceGraphic" in2="effect1_dropShadow_11172_432" result="shape"/>
</filter>
<clipPath id="clip0_11172_432">
<rect width="74" height="74" fill="white"/>
</clipPath>
</defs>
</svg>
