<svg width="19" height="14" viewBox="0 0 19 14" fill="none" xmlns="http://www.w3.org/2000/svg">
<path d="M15.7647 1.48966C14.6123 0.969981 13.3771 0.585871 12.0854 0.367456C12.0739 0.365248 12.062 0.366671 12.0513 0.371529C12.0407 0.376387 12.0318 0.384439 12.0259 0.39457C11.8677 0.672484 11.6915 1.03475 11.568 1.32095C10.198 1.11627 8.80522 1.11627 7.43525 1.32095C7.29767 1.00377 7.14252 0.694495 6.97053 0.39457C6.9647 0.384314 6.95588 0.37608 6.94525 0.370966C6.93462 0.365852 6.92268 0.364103 6.91103 0.36595C5.62008 0.584365 4.38486 0.968475 3.23173 1.48891C3.22181 1.49307 3.2134 1.50016 3.20763 1.50924C0.863723 4.95493 0.221257 8.31551 0.536841 11.6339C0.537719 11.642 0.540242 11.6499 0.544256 11.657C0.54827 11.6641 0.553691 11.6704 0.56019 11.6753C1.92827 12.6713 3.45417 13.4301 5.07402 13.9197C5.08531 13.9232 5.09739 13.9232 5.10867 13.9197C5.11996 13.9162 5.12993 13.9094 5.13729 13.9002C5.48526 13.4332 5.79557 12.9399 6.06069 12.4217C6.07651 12.3916 6.06144 12.3554 6.02981 12.3434C5.54325 12.1602 5.07182 11.9391 4.61985 11.6821C4.61173 11.6775 4.60488 11.6709 4.59993 11.663C4.59498 11.655 4.59208 11.646 4.59148 11.6367C4.59088 11.6273 4.59261 11.618 4.59651 11.6095C4.60041 11.601 4.60636 11.5936 4.61382 11.588C4.70872 11.5179 4.80362 11.4449 4.89401 11.3718C4.90214 11.3652 4.91194 11.3611 4.92231 11.3597C4.93269 11.3584 4.94323 11.36 4.95276 11.3643C7.91051 12.6928 11.1138 12.6928 14.0369 11.3643C14.0465 11.3597 14.0571 11.3579 14.0676 11.3591C14.0781 11.3603 14.0881 11.3645 14.0964 11.3711C14.1868 11.4449 14.2809 11.5179 14.3766 11.588C14.3841 11.5935 14.3902 11.6008 14.3942 11.6092C14.3982 11.6176 14.4001 11.6269 14.3996 11.6363C14.3992 11.6456 14.3964 11.6547 14.3916 11.6627C14.3868 11.6707 14.3801 11.6773 14.3721 11.6821C13.9217 11.9412 13.4532 12.1604 12.9614 12.3426C12.9538 12.3454 12.9469 12.3497 12.9412 12.3553C12.9354 12.3609 12.9309 12.3677 12.928 12.3752C12.9251 12.3827 12.9238 12.3907 12.9242 12.3987C12.9246 12.4067 12.9268 12.4146 12.9305 12.4217C13.2016 12.9391 13.5119 13.4317 13.8531 13.8994C13.8602 13.909 13.8701 13.9162 13.8814 13.92C13.8927 13.9237 13.905 13.9239 13.9164 13.9205C15.539 13.4322 17.0674 12.6731 18.437 11.6753C18.4437 11.6707 18.4493 11.6646 18.4534 11.6576C18.4576 11.6506 18.4602 11.6428 18.4611 11.6347C18.8377 7.79809 17.8299 4.46462 15.7881 1.51075C15.783 1.50115 15.7748 1.49366 15.7647 1.48966ZM6.50281 9.61319C5.61254 9.61319 4.87819 8.80807 4.87819 7.82068C4.87819 6.83254 5.59823 6.02817 6.50281 6.02817C7.41416 6.02817 8.14173 6.83932 8.12742 7.82068C8.12742 8.80882 7.40738 9.61319 6.50281 9.61319ZM12.5094 9.61319C11.6184 9.61319 10.8848 8.80807 10.8848 7.82068C10.8848 6.83254 11.6041 6.02817 12.5094 6.02817C13.4208 6.02817 14.1484 6.83932 14.1341 7.82068C14.1341 8.80882 13.4215 9.61319 12.5094 9.61319Z" fill="white"/>
</svg>
