<svg width="11" height="10" viewBox="0 0 11 10" fill="none" xmlns="http://www.w3.org/2000/svg">
<path d="M6.4502 0.722089L7.41809 2.49644C7.55008 2.74343 7.90204 2.98035 8.19901 3.02572L9.95331 3.29288C11.0752 3.46426 11.3392 4.2103 10.5307 4.94625L9.1669 6.19636C8.93592 6.40807 8.80944 6.81637 8.88093 7.10873L9.27139 8.65625C9.57935 9.88115 8.86993 10.355 7.68756 9.71481L6.04324 8.82259C5.74628 8.66129 5.25683 8.66129 4.95437 8.82259L3.31005 9.71481C2.13318 10.355 1.41826 9.87611 1.72622 8.65625L2.11668 7.10873C2.18817 6.81637 2.06169 6.40807 1.83071 6.19636L0.466861 4.94625C-0.33605 4.2103 -0.0775784 3.46426 1.0443 3.29288L2.7986 3.02572C3.09007 2.98035 3.44203 2.74343 3.57402 2.49644L4.54191 0.722089C5.06985 -0.240696 5.92776 -0.240696 6.4502 0.722089Z" fill="#FFD700"/>
</svg>
