<svg width="18" height="14" viewBox="0 0 18 14" fill="none" xmlns="http://www.w3.org/2000/svg">
<path d="M17.5383 2.01151C16.9068 2.28327 16.2284 2.4669 15.5151 2.5499C16.251 2.12227 16.8016 1.44923 17.0641 0.656367C16.3727 1.05519 15.616 1.33592 14.8269 1.48635C14.2962 0.936111 13.5934 0.571405 12.8274 0.448853C12.0615 0.326301 11.2753 0.452759 10.5909 0.808593C9.90654 1.16443 9.36229 1.72973 9.04265 2.41673C8.72301 3.10374 8.64587 3.87401 8.8232 4.60795C7.42225 4.53964 6.05175 4.18602 4.80064 3.57004C3.54952 2.95406 2.44576 2.08949 1.56098 1.03243C1.25845 1.53923 1.0845 2.12683 1.0845 2.75262C1.08416 3.31597 1.22701 3.87069 1.50038 4.36757C1.77375 4.86445 2.16919 5.28812 2.6516 5.60099C2.09213 5.5837 1.545 5.43689 1.05576 5.17278V5.21685C1.0557 6.00697 1.33713 6.77278 1.8523 7.38434C2.36747 7.99589 3.08465 8.41552 3.88214 8.57202C3.36314 8.70843 2.819 8.72852 2.29083 8.63078C2.51584 9.31064 2.95413 9.90515 3.54434 10.3311C4.13455 10.757 4.84714 10.993 5.58235 11.0061C4.33429 11.9576 2.79295 12.4737 1.20627 12.4715C0.925202 12.4715 0.644375 12.4556 0.365234 12.4237C1.97581 13.4294 3.85063 13.9631 5.76538 13.961C12.2471 13.961 15.7904 8.74756 15.7904 4.22601C15.7904 4.07911 15.7867 3.93075 15.7799 3.78385C16.4691 3.2998 17.064 2.70039 17.5368 2.01371L17.5383 2.01151Z" fill="white"/>
</svg>
